<mxfile host="Electron" modified="2024-04-18T15:55:25.411Z" agent="Mozilla/5.0 (Windows NT 10.0; Win64; x64) AppleWebKit/537.36 (KHTML, like Gecko) draw.io/24.2.5 Chrome/120.0.6099.109 Electron/28.1.0 Safari/537.36" etag="UjWNGuiB-Ci9NhI7-l6c" version="24.2.5" type="device">
  <diagram name="Page-1" id="vUU_emN7yJcRc83myupm">
    <mxGraphModel dx="915" dy="823" grid="1" gridSize="10" guides="1" tooltips="1" connect="1" arrows="1" fold="1" page="1" pageScale="1" pageWidth="850" pageHeight="1100" math="0" shadow="0">
      <root>
        <mxCell id="0" />
        <mxCell id="1" parent="0" />
        <mxCell id="mRZGWi-5gKAARmWrkxuo-20" value="" style="rounded=0;whiteSpace=wrap;html=1;fillColor=#fff2cc;strokeColor=#d6b656;" vertex="1" parent="1">
          <mxGeometry x="490" y="310" width="140" height="320" as="geometry" />
        </mxCell>
        <mxCell id="Rs3vqMYlcIc5PFBU7NeD-32" value="" style="rounded=0;whiteSpace=wrap;html=1;fillColor=#d5e8d4;strokeColor=#82b366;" parent="1" vertex="1">
          <mxGeometry x="330" y="310" width="140" height="400" as="geometry" />
        </mxCell>
        <mxCell id="Rs3vqMYlcIc5PFBU7NeD-30" value="" style="rounded=0;whiteSpace=wrap;html=1;fillColor=#f8cecc;strokeColor=#b85450;direction=west;" parent="1" vertex="1">
          <mxGeometry x="170" y="630" width="140" height="80" as="geometry" />
        </mxCell>
        <mxCell id="Rs3vqMYlcIc5PFBU7NeD-1" value="" style="rounded=0;whiteSpace=wrap;html=1;fillColor=#dae8fc;strokeColor=#6c8ebf;" parent="1" vertex="1">
          <mxGeometry x="170" y="310" width="140" height="240" as="geometry" />
        </mxCell>
        <mxCell id="WBjCWTKnr4wZ1udg9dOo-3" value="End Switches" style="rounded=0;whiteSpace=wrap;html=1;" parent="1" vertex="1">
          <mxGeometry x="180" y="320" width="120" height="60" as="geometry" />
        </mxCell>
        <mxCell id="WBjCWTKnr4wZ1udg9dOo-4" value="Bed Temperatuur" style="rounded=0;whiteSpace=wrap;html=1;" parent="1" vertex="1">
          <mxGeometry x="180" y="400" width="120" height="60" as="geometry" />
        </mxCell>
        <mxCell id="WBjCWTKnr4wZ1udg9dOo-5" value="Power Supply" style="rounded=0;whiteSpace=wrap;html=1;direction=west;" parent="1" vertex="1">
          <mxGeometry x="180" y="640" width="120" height="60" as="geometry" />
        </mxCell>
        <mxCell id="WBjCWTKnr4wZ1udg9dOo-6" value="Stepper Motors" style="rounded=0;whiteSpace=wrap;html=1;" parent="1" vertex="1">
          <mxGeometry x="500" y="320" width="120" height="60" as="geometry" />
        </mxCell>
        <mxCell id="WBjCWTKnr4wZ1udg9dOo-8" value="Moederboard" style="rounded=0;whiteSpace=wrap;html=1;" parent="1" vertex="1">
          <mxGeometry x="340" y="320" width="120" height="380" as="geometry" />
        </mxCell>
        <mxCell id="WBjCWTKnr4wZ1udg9dOo-11" value="Display" style="rounded=0;whiteSpace=wrap;html=1;" parent="1" vertex="1">
          <mxGeometry x="340" y="740" width="120" height="60" as="geometry" />
        </mxCell>
        <mxCell id="WBjCWTKnr4wZ1udg9dOo-12" value="Nozzle Temperatuur" style="rounded=0;whiteSpace=wrap;html=1;" parent="1" vertex="1">
          <mxGeometry x="180" y="480" width="120" height="60" as="geometry" />
        </mxCell>
        <mxCell id="Rs3vqMYlcIc5PFBU7NeD-2" value="&lt;font color=&quot;#6c8ebf&quot;&gt;Ingang&lt;/font&gt;" style="text;html=1;align=center;verticalAlign=middle;resizable=0;points=[];autosize=1;strokeColor=none;fillColor=none;" parent="1" vertex="1">
          <mxGeometry x="210" y="280" width="60" height="30" as="geometry" />
        </mxCell>
        <mxCell id="Rs3vqMYlcIc5PFBU7NeD-8" value="" style="endArrow=classic;html=1;rounded=0;strokeColor=#b85450;" parent="1" edge="1">
          <mxGeometry width="50" height="50" relative="1" as="geometry">
            <mxPoint x="340" y="359.64" as="sourcePoint" />
            <mxPoint x="300" y="359.64" as="targetPoint" />
          </mxGeometry>
        </mxCell>
        <mxCell id="Rs3vqMYlcIc5PFBU7NeD-11" value="" style="endArrow=classic;html=1;rounded=0;strokeColor=#6c8ebf;" parent="1" edge="1">
          <mxGeometry width="50" height="50" relative="1" as="geometry">
            <mxPoint x="300" y="339.88" as="sourcePoint" />
            <mxPoint x="340" y="339.88" as="targetPoint" />
          </mxGeometry>
        </mxCell>
        <mxCell id="Rs3vqMYlcIc5PFBU7NeD-12" value="" style="endArrow=classic;html=1;rounded=0;strokeColor=#b85450;" parent="1" edge="1">
          <mxGeometry width="50" height="50" relative="1" as="geometry">
            <mxPoint x="340" y="439.64" as="sourcePoint" />
            <mxPoint x="300" y="439.64" as="targetPoint" />
          </mxGeometry>
        </mxCell>
        <mxCell id="Rs3vqMYlcIc5PFBU7NeD-13" value="" style="endArrow=classic;html=1;rounded=0;strokeColor=#6c8ebf;" parent="1" edge="1">
          <mxGeometry width="50" height="50" relative="1" as="geometry">
            <mxPoint x="300" y="419.88" as="sourcePoint" />
            <mxPoint x="340" y="419.88" as="targetPoint" />
          </mxGeometry>
        </mxCell>
        <mxCell id="Rs3vqMYlcIc5PFBU7NeD-14" value="" style="endArrow=classic;html=1;rounded=0;strokeColor=#b85450;" parent="1" edge="1">
          <mxGeometry width="50" height="50" relative="1" as="geometry">
            <mxPoint x="340" y="519.64" as="sourcePoint" />
            <mxPoint x="300" y="519.64" as="targetPoint" />
          </mxGeometry>
        </mxCell>
        <mxCell id="Rs3vqMYlcIc5PFBU7NeD-15" value="" style="endArrow=classic;html=1;rounded=0;strokeColor=#6c8ebf;" parent="1" edge="1">
          <mxGeometry width="50" height="50" relative="1" as="geometry">
            <mxPoint x="300" y="499.88" as="sourcePoint" />
            <mxPoint x="340" y="499.88" as="targetPoint" />
          </mxGeometry>
        </mxCell>
        <mxCell id="Rs3vqMYlcIc5PFBU7NeD-24" value="" style="endArrow=classic;html=1;rounded=0;strokeColor=#b85450;" parent="1" edge="1">
          <mxGeometry width="50" height="50" relative="1" as="geometry">
            <mxPoint x="300" y="670" as="sourcePoint" />
            <mxPoint x="340" y="670" as="targetPoint" />
          </mxGeometry>
        </mxCell>
        <mxCell id="Rs3vqMYlcIc5PFBU7NeD-31" value="&lt;font color=&quot;#ba2626&quot;&gt;Voeding&lt;/font&gt;" style="text;html=1;align=center;verticalAlign=middle;resizable=0;points=[];autosize=1;strokeColor=none;fillColor=none;" parent="1" vertex="1">
          <mxGeometry x="205" y="600" width="70" height="30" as="geometry" />
        </mxCell>
        <mxCell id="Rs3vqMYlcIc5PFBU7NeD-33" value="&lt;font color=&quot;#82b366&quot;&gt;Signal processing&lt;/font&gt;" style="text;html=1;align=center;verticalAlign=middle;resizable=0;points=[];autosize=1;strokeColor=none;fillColor=none;" parent="1" vertex="1">
          <mxGeometry x="340" y="280" width="120" height="30" as="geometry" />
        </mxCell>
        <mxCell id="mRZGWi-5gKAARmWrkxuo-7" value="Heated Bed" style="rounded=0;whiteSpace=wrap;html=1;" vertex="1" parent="1">
          <mxGeometry x="500" y="400" width="120" height="60" as="geometry" />
        </mxCell>
        <mxCell id="mRZGWi-5gKAARmWrkxuo-8" value="Hotend" style="rounded=0;whiteSpace=wrap;html=1;" vertex="1" parent="1">
          <mxGeometry x="500" y="480" width="120" height="60" as="geometry" />
        </mxCell>
        <mxCell id="mRZGWi-5gKAARmWrkxuo-9" value="Cooling Fan" style="rounded=0;whiteSpace=wrap;html=1;" vertex="1" parent="1">
          <mxGeometry x="500" y="560" width="120" height="60" as="geometry" />
        </mxCell>
        <mxCell id="mRZGWi-5gKAARmWrkxuo-11" value="" style="endArrow=classic;html=1;rounded=0;strokeColor=#82b366;" edge="1" parent="1">
          <mxGeometry width="50" height="50" relative="1" as="geometry">
            <mxPoint x="460" y="339.76000000000005" as="sourcePoint" />
            <mxPoint x="500" y="339.76000000000005" as="targetPoint" />
          </mxGeometry>
        </mxCell>
        <mxCell id="mRZGWi-5gKAARmWrkxuo-12" value="" style="endArrow=classic;html=1;rounded=0;strokeColor=#ba2626;" edge="1" parent="1">
          <mxGeometry width="50" height="50" relative="1" as="geometry">
            <mxPoint x="460" y="359.76" as="sourcePoint" />
            <mxPoint x="500" y="359.76" as="targetPoint" />
          </mxGeometry>
        </mxCell>
        <mxCell id="mRZGWi-5gKAARmWrkxuo-13" value="" style="endArrow=classic;html=1;rounded=0;strokeColor=#82b366;" edge="1" parent="1">
          <mxGeometry width="50" height="50" relative="1" as="geometry">
            <mxPoint x="460" y="419.76000000000005" as="sourcePoint" />
            <mxPoint x="500" y="419.76000000000005" as="targetPoint" />
          </mxGeometry>
        </mxCell>
        <mxCell id="mRZGWi-5gKAARmWrkxuo-14" value="" style="endArrow=classic;html=1;rounded=0;strokeColor=#ba2626;" edge="1" parent="1">
          <mxGeometry width="50" height="50" relative="1" as="geometry">
            <mxPoint x="460" y="439.76" as="sourcePoint" />
            <mxPoint x="500" y="439.76" as="targetPoint" />
          </mxGeometry>
        </mxCell>
        <mxCell id="mRZGWi-5gKAARmWrkxuo-15" value="" style="endArrow=classic;html=1;rounded=0;strokeColor=#82b366;" edge="1" parent="1">
          <mxGeometry width="50" height="50" relative="1" as="geometry">
            <mxPoint x="460" y="499.76" as="sourcePoint" />
            <mxPoint x="500" y="499.76" as="targetPoint" />
          </mxGeometry>
        </mxCell>
        <mxCell id="mRZGWi-5gKAARmWrkxuo-16" value="" style="endArrow=classic;html=1;rounded=0;strokeColor=#ba2626;" edge="1" parent="1">
          <mxGeometry width="50" height="50" relative="1" as="geometry">
            <mxPoint x="460" y="519.76" as="sourcePoint" />
            <mxPoint x="500" y="519.76" as="targetPoint" />
          </mxGeometry>
        </mxCell>
        <mxCell id="mRZGWi-5gKAARmWrkxuo-17" value="" style="endArrow=classic;html=1;rounded=0;strokeColor=#82b366;" edge="1" parent="1">
          <mxGeometry width="50" height="50" relative="1" as="geometry">
            <mxPoint x="460" y="579.76" as="sourcePoint" />
            <mxPoint x="500" y="579.76" as="targetPoint" />
          </mxGeometry>
        </mxCell>
        <mxCell id="mRZGWi-5gKAARmWrkxuo-18" value="" style="endArrow=classic;html=1;rounded=0;strokeColor=#ba2626;" edge="1" parent="1">
          <mxGeometry width="50" height="50" relative="1" as="geometry">
            <mxPoint x="460" y="599.76" as="sourcePoint" />
            <mxPoint x="500" y="599.76" as="targetPoint" />
          </mxGeometry>
        </mxCell>
        <mxCell id="mRZGWi-5gKAARmWrkxuo-21" value="&lt;font&gt;Uitgang&lt;/font&gt;" style="text;html=1;align=center;verticalAlign=middle;resizable=0;points=[];autosize=1;strokeColor=none;fillColor=none;fontColor=#d6b656;" vertex="1" parent="1">
          <mxGeometry x="530" y="280" width="60" height="30" as="geometry" />
        </mxCell>
        <mxCell id="mRZGWi-5gKAARmWrkxuo-22" value="" style="endArrow=classic;startArrow=classic;html=1;rounded=0;exitX=0.5;exitY=0;exitDx=0;exitDy=0;entryX=0.5;entryY=1;entryDx=0;entryDy=0;fontColor=#82b366;strokeColor=#82b366;" edge="1" parent="1">
          <mxGeometry width="50" height="50" relative="1" as="geometry">
            <mxPoint x="390" y="740" as="sourcePoint" />
            <mxPoint x="390" y="700" as="targetPoint" />
          </mxGeometry>
        </mxCell>
        <mxCell id="mRZGWi-5gKAARmWrkxuo-23" value="" style="endArrow=classic;html=1;rounded=0;strokeColor=#ba2626;" edge="1" parent="1">
          <mxGeometry width="50" height="50" relative="1" as="geometry">
            <mxPoint x="410" y="700" as="sourcePoint" />
            <mxPoint x="410" y="740" as="targetPoint" />
          </mxGeometry>
        </mxCell>
      </root>
    </mxGraphModel>
  </diagram>
</mxfile>
